<svg width="36" height="37" viewBox="0 0 36 37" fill="none" xmlns="http://www.w3.org/2000/svg">
<path d="M36 0.5C35.5781 6.35937 34.3125 11.8672 32.2031 17.0234L24.75 20.75H30.4453C29.7891 21.9219 29.0859 23.0234 28.3359 24.0547L18 27.5H25.1016C22.3828 29.7969 19.2656 31.1328 15.75 31.5078C14.2969 31.6484 12.8203 31.7656 11.3203 31.8594C9.86719 31.9531 8.39062 32 6.89062 32L2.88281 36.0078C2.55469 36.3359 2.15625 36.5 1.6875 36.5C1.21875 36.5 0.820312 36.3359 0.492188 36.0078C0.164063 35.6797 0 35.2812 0 34.8125C0 34.3438 0.164063 33.9453 0.492188 33.6172L18.7734 15.4062C19.2891 14.8438 19.2656 14.3047 18.7031 13.7891C18.1875 13.2734 17.6719 13.2734 17.1562 13.7891L4.57031 26.375C4.66406 24.2188 4.80469 22.3438 4.99219 20.75C5.22656 18.3594 5.92969 16.1562 7.10156 14.1406C8.27344 12.0781 9.65625 10.3906 11.25 9.07812C12.8438 7.76562 14.6953 6.57031 16.8047 5.49219C18.9609 4.41406 20.9531 3.59375 22.7812 3.03125C24.6562 2.46875 26.6016 1.97656 28.6172 1.55469C30.6328 1.13281 32.1562 0.875 33.1875 0.78125C34.2188 0.640625 35.1562 0.546875 36 0.5Z" fill="white"/>
<path d="M36 0.5L36.9974 0.571814L37.079 -0.561487L35.9445 -0.49846L36 0.5ZM32.2031 17.0234L32.6503 17.9179L32.9864 17.7498L33.1287 17.4021L32.2031 17.0234ZM24.75 20.75L24.3028 19.8556L24.75 21.75V20.75ZM30.4453 20.75L31.3178 21.2386L32.1514 19.75H30.4453V20.75ZM28.3359 24.0547L28.6522 25.0034L28.9562 24.902L29.1447 24.6429L28.3359 24.0547ZM18 27.5L17.6838 26.5513L18 28.5V27.5ZM25.1016 27.5L25.7469 28.2639L27.8348 26.5H25.1016V27.5ZM15.75 31.5078L15.8463 32.5032L15.8561 32.5022L15.75 31.5078ZM11.3203 31.8594L11.2579 30.8613L11.2559 30.8615L11.3203 31.8594ZM6.89062 32V31H6.47641L6.18352 31.2929L6.89062 32ZM0.492188 33.6172L-0.213557 32.9087L-0.214919 32.9101L0.492188 33.6172ZM18.7734 15.4062L19.4792 16.1147L19.4953 16.0987L19.5106 16.082L18.7734 15.4062ZM18.7031 13.7891L17.996 14.4962L18.0114 14.5115L18.0274 14.5262L18.7031 13.7891ZM4.57031 26.375L3.57126 26.3316L3.45959 28.8999L5.27742 27.0821L4.57031 26.375ZM4.99219 20.75L5.98534 20.8668L5.98647 20.8572L5.98742 20.8476L4.99219 20.75ZM7.10156 14.1406L7.96611 14.6433L7.97102 14.6346L7.10156 14.1406ZM16.8047 5.49219L16.3575 4.59773L16.3496 4.60175L16.8047 5.49219ZM22.7812 3.03125L22.4939 2.0734L22.4872 2.07547L22.7812 3.03125ZM33.1875 0.78125L33.278 1.77714L33.3004 1.77511L33.3226 1.77208L33.1875 0.78125ZM35.0026 0.428186C34.5879 6.18791 33.3448 11.5916 31.2776 16.6448L33.1287 17.4021C35.2802 12.1428 36.5684 6.53084 36.9974 0.571814L35.0026 0.428186ZM31.7559 16.129L24.3028 19.8556L25.1972 21.6444L32.6503 17.9179L31.7559 16.129ZM24.75 21.75H30.4453V19.75H24.75V21.75ZM29.5728 20.2614C28.9348 21.4007 28.2528 22.4688 27.5272 23.4665L29.1447 24.6429C29.9191 23.5781 30.6433 22.4431 31.3178 21.2386L29.5728 20.2614ZM28.0197 23.106L17.6838 26.5513L18.3162 28.4487L28.6522 25.0034L28.0197 23.106ZM18 28.5H25.1016V26.5H18V28.5ZM24.4562 26.7361C21.8891 28.9049 18.9594 30.1598 15.6439 30.5135L15.8561 32.5022C19.5719 32.1058 22.8766 30.6888 25.7469 28.2639L24.4562 26.7361ZM15.6537 30.5125C14.2122 30.652 12.7469 30.7683 11.2579 30.8613L11.3827 32.8574C12.8937 32.763 14.3816 32.6449 15.8463 32.5032L15.6537 30.5125ZM11.2559 30.8615C9.82487 30.9538 8.36979 31 6.89062 31V33C8.41146 33 9.9095 32.9525 11.3847 32.8573L11.2559 30.8615ZM6.18352 31.2929L2.17571 35.3007L3.58992 36.7149L7.59773 32.7071L6.18352 31.2929ZM2.17571 35.3007C2.03725 35.4392 1.89406 35.5 1.6875 35.5V37.5C2.41844 37.5 3.07213 37.2327 3.58992 36.7149L2.17571 35.3007ZM1.6875 35.5C1.48094 35.5 1.33775 35.4392 1.19929 35.3007L-0.214919 36.7149C0.302872 37.2327 0.95656 37.5 1.6875 37.5V35.5ZM1.19929 35.3007C1.06084 35.1622 1 35.0191 1 34.8125H-1C-1 35.5434 -0.73271 36.1971 -0.214919 36.7149L1.19929 35.3007ZM1 34.8125C1 34.6059 1.06084 34.4628 1.19929 34.3243L-0.214919 32.9101C-0.73271 33.4279 -1 34.0816 -1 34.8125H1ZM1.19793 34.3257L19.4792 16.1147L18.0677 14.6978L-0.213556 32.9087L1.19793 34.3257ZM19.5106 16.082C19.8726 15.6871 20.1689 15.1646 20.1416 14.5366C20.1143 13.9087 19.7737 13.4139 19.3788 13.0519L18.0274 14.5262C18.1088 14.6008 18.1404 14.649 18.1498 14.6658C18.1566 14.6781 18.1452 14.6614 18.1435 14.6235C18.1419 14.5857 18.1518 14.568 18.1461 14.5808C18.1382 14.5984 18.1109 14.6491 18.0363 14.7305L19.5106 16.082ZM19.4102 13.082C19.0434 12.7151 18.5463 12.4023 17.9297 12.4023C17.3131 12.4023 16.816 12.7151 16.4491 13.082L17.8634 14.4962C17.9354 14.4241 17.979 14.399 17.9902 14.3934C17.9968 14.3901 17.9735 14.4023 17.9297 14.4023C17.8858 14.4023 17.8626 14.3901 17.8692 14.3934C17.8804 14.399 17.9239 14.4241 17.996 14.4962L19.4102 13.082ZM16.4491 13.082L3.86321 25.6679L5.27742 27.0821L17.8634 14.4962L16.4491 13.082ZM5.56937 26.4184C5.66239 24.279 5.80149 22.4296 5.98534 20.8668L3.99904 20.6332C3.80788 22.2579 3.66574 24.1585 3.57126 26.3316L5.56937 26.4184ZM5.98742 20.8476C6.20822 18.5953 6.86854 16.531 7.96607 14.6432L6.23706 13.638C4.99084 15.7815 4.2449 18.1234 3.99696 20.6524L5.98742 20.8476ZM7.97102 14.6346C9.09146 12.6627 10.3991 11.0743 11.8857 9.85006L10.6143 8.30619C8.91339 9.70694 7.45541 11.4936 6.23211 13.6466L7.97102 14.6346ZM11.8857 9.85006C13.4163 8.5896 15.2055 7.43259 17.2598 6.38262L16.3496 4.60175C14.1851 5.70804 12.2712 6.94165 10.6143 8.30619L11.8857 9.85006ZM17.2519 6.38661C19.371 5.32709 21.3113 4.5298 23.0753 3.98703L22.4872 2.07547C20.5949 2.6577 18.5509 3.50104 16.3575 4.59776L17.2519 6.38661ZM23.0686 3.98908C24.9151 3.43514 26.8328 2.94984 28.8221 2.53348L28.4123 0.575897C26.3703 1.00329 24.3974 1.50236 22.4939 2.07342L23.0686 3.98908ZM28.8221 2.53348C30.8291 2.1134 32.3064 1.86547 33.278 1.77714L33.097 -0.214643C32.0061 -0.115469 30.4365 0.152227 28.4123 0.575897L28.8221 2.53348ZM33.3226 1.77208C34.3332 1.63427 35.2436 1.54356 36.0555 1.49846L35.9445 -0.49846C35.0689 -0.449814 34.1043 -0.353022 33.0524 -0.20958L33.3226 1.77208Z" fill="black"/>
</svg>
